<svg xmlns="http://www.w3.org/2000/svg" width="26" height="26" viewBox="0 0 26 26" fill="none"><path d="M13.0201 1.36567C6.01644 1.36567 0.338867 7.04319 0.338867 14.0469C0.338867 17.5621 1.76949 20.7429 4.0797 23.0397L5.9713 21.1482C4.21609 19.4062 3.10579 17.0174 3.0217 14.3695H4.4646C4.53121 14.3695 4.59717 14.3564 4.65872 14.3309C4.72026 14.3055 4.77618 14.2681 4.82328 14.221C4.87038 14.1739 4.90774 14.118 4.93323 14.0564C4.95871 13.9949 4.97182 13.9289 4.97181 13.8623C4.97181 13.5823 4.74478 13.3552 4.4646 13.3552H3.04011C3.19341 11.1113 4.08583 9.0715 5.47678 7.47599L6.51366 8.51297C6.71168 8.71114 7.03293 8.71114 7.23095 8.51297C7.42912 8.31485 7.42912 7.99375 7.23095 7.79568L6.18096 6.74554C7.85526 5.17655 10.0676 4.17518 12.5129 4.05314V5.37779C12.5129 5.65781 12.74 5.88484 13.0201 5.88484C13.3002 5.88484 13.5273 5.65781 13.5273 5.37779V4.05304C16.0066 4.17674 18.2463 5.20489 19.9286 6.81153L18.9446 7.79558C18.7465 7.99365 18.7465 8.31475 18.9446 8.51287C19.1427 8.71104 19.4638 8.71104 19.6619 8.51287L20.6263 7.54842C21.9813 9.13307 22.8492 11.1451 23.0001 13.3551H21.4342C21.1542 13.3551 20.927 13.5822 20.927 13.8622C20.927 14.1424 21.1542 14.3694 21.4342 14.3694H23.0184C22.9344 17.0174 21.8239 19.4061 20.0688 21.1481L21.9603 23.0396C24.2707 20.7427 25.7012 17.562 25.7012 14.0468C25.7012 7.04314 20.0237 1.36567 13.0201 1.36567Z" fill="white"></path><path d="M18.3226 9.01872C17.9481 8.69788 17.4941 9.2079 17.0806 9.57169L11.9705 14.3412C11.6574 14.6758 11.7415 15.2637 12.1586 15.6542L12.2426 15.7325C12.6596 16.1229 13.2518 16.1681 13.5651 15.8336L17.8246 10.3619C18.2099 9.85707 18.6592 9.35106 18.3769 9.07041L18.3226 9.01872Z" fill="white"></path></svg>